<?xml version="1.0" standalone="no"?>
<!DOCTYPE svg PUBLIC "-//W3C//DTD SVG 20010904//EN"
 "http://www.w3.org/TR/2001/REC-SVG-20010904/DTD/svg10.dtd">
<svg version="1.0" xmlns="http://www.w3.org/2000/svg"
 width="605.000000pt" height="605.000000pt" viewBox="0 0 605.000000 605.000000"
 preserveAspectRatio="xMidYMid meet">
<metadata>
Created by potrace 1.11, written by Peter Selinger 2001-2013
</metadata>
<g transform="translate(0.000000,605.000000) scale(0.100000,-0.100000)"
fill="#000000" stroke="none">
<path d="M2720 5839 c-572 -62 -1135 -313 -1571 -702 -503 -448 -813 -1022
-926 -1709 -25 -147 -25 -659 0 -806 61 -375 178 -709 352 -1007 133 -228 260
-391 454 -586 442 -441 956 -702 1593 -806 147 -25 659 -25 806 0 375 61 709
178 1007 352 228 133 391 260 586 454 441 442 702 956 806 1593 25 147 25 659
0 806 -86 527 -274 955 -595 1362 -97 122 -320 345 -442 442 -405 320 -840
511 -1357 594 -116 19 -582 28 -713 13z m-1155 -1196 c-68 -85 -137 -223 -164
-328 -32 -124 -41 -245 -41 -575 0 -259 -3 -319 -19 -397 -34 -166 -102 -268
-207 -315 -24 -10 -44 -23 -44 -28 0 -5 27 -23 61 -41 69 -37 98 -69 140 -150
56 -112 61 -149 69 -584 7 -341 11 -413 28 -490 33 -152 103 -297 192 -397
l42 -48 -94 0 c-87 0 -97 2 -131 28 -82 61 -165 188 -217 331 -52 141 -60 220
-60 566 0 333 -9 428 -51 541 -29 78 -98 146 -162 162 l-47 12 0 68 0 68 45
12 c52 14 118 70 145 123 11 20 29 70 41 110 20 68 22 105 29 469 7 383 8 398
33 485 49 171 120 299 218 389 l60 56 95 0 94 0 -55 -67z m3124 33 c106 -89
196 -247 243 -431 19 -71 22 -123 28 -470 8 -410 12 -441 60 -552 28 -67 95
-129 155 -145 l45 -12 0 -68 0 -68 -44 -11 c-88 -22 -148 -95 -187 -229 -20
-69 -22 -104 -29 -470 -6 -354 -9 -403 -28 -470 -46 -169 -119 -307 -213 -401
l-59 -59 -101 0 -101 0 42 48 c89 100 159 245 192 397 17 76 21 151 28 490 8
432 13 470 68 583 33 69 94 132 150 157 51 23 54 47 8 63 -49 18 -117 82 -148
138 -15 27 -36 83 -49 124 -20 69 -22 105 -29 475 -8 390 -13 453 -47 575 -24
86 -98 228 -158 303 l-55 67 94 0 c92 0 95 -1 135 -34z m-2056 -861 l87 -17 0
-105 c0 -92 -2 -104 -16 -99 -78 30 -436 43 -506 18 -55 -20 -113 -81 -134
-143 -15 -44 -19 -82 -19 -200 1 -133 3 -149 25 -195 18 -34 36 -54 60 -66 19
-9 129 -33 244 -52 249 -42 304 -64 348 -136 39 -65 58 -148 66 -289 23 -410
-58 -600 -286 -667 -132 -39 -407 -34 -634 12 l-28 6 0 100 0 101 38 -7 c103
-17 260 -28 372 -24 103 3 132 8 166 26 48 24 88 69 110 120 36 87 35 363 -2
437 -32 65 -51 73 -290 115 -120 21 -236 45 -256 54 -56 24 -103 70 -126 125
-50 114 -67 363 -37 537 35 207 135 315 330 360 81 19 368 12 488 -11z m1374
-15 c80 -41 121 -94 153 -196 33 -109 40 -255 43 -1011 l3 -733 -123 0 -123 0
0 693 c0 804 -7 904 -63 988 -38 58 -85 74 -217 74 -99 0 -121 -3 -156 -22
-79 -42 -125 -119 -151 -252 -12 -61 -16 -212 -20 -778 l-5 -703 -119 0 -119
0 0 980 0 980 110 0 110 0 0 -52 c0 -29 3 -90 7 -136 8 -102 22 -105 61 -14
48 112 130 184 239 212 21 5 97 8 170 7 128 -2 133 -3 200 -37z"/>
</g>
</svg>
