<?xml version="1.0" encoding="UTF-8"?>
<svg xmlns="http://www.w3.org/2000/svg" xmlns:xlink="http://www.w3.org/1999/xlink" viewBox="0 0 48 48" version="1.1" width="100px" height="100px">
<g id="surface1">
<path style=" fill:#039BE5;" d="M 32.875 5 L 15.125 5 C 13.988281 5 12.871094 5.652344 12.308594 6.648438 L 3.421875 22.339844 C 2.859375 23.351563 2.859375 24.648438 3.421875 25.660156 L 12.308594 41.351563 C 12.871094 42.351563 13.988281 43 15.125 43 L 32.875 43 C 34.011719 43 35.128906 42.347656 35.691406 41.351563 L 44.578125 25.660156 C 45.140625 24.648438 45.140625 23.351563 44.578125 22.339844 L 35.691406 6.648438 C 35.128906 5.652344 34.011719 5 32.875 5 Z "/>
<path style=" fill:#FFFFFF;" d="M 32.613281 34 L 29.5625 34 C 29.417969 34 29.277344 33.910156 29.210938 33.78125 L 24.046875 24.199219 C 24.019531 24.148438 24.011719 24.089844 24 24.039063 C 23.988281 24.089844 23.980469 24.148438 23.953125 24.199219 L 18.773438 33.78125 C 18.714844 33.910156 18.582031 33.988281 18.4375 34 L 15.386719 34 C 15.113281 34 14.902344 33.632813 15.046875 33.378906 L 20.09375 24 L 15.046875 14.601563 C 14.921875 14.375 15.074219 14.050781 15.3125 14 L 18.4375 14 C 18.570313 14 18.703125 14.089844 18.773438 14.207031 L 23.953125 23.792969 C 23.980469 23.84375 23.988281 23.890625 24 23.949219 C 24.011719 23.890625 24.019531 23.84375 24.046875 23.792969 L 29.210938 14.207031 C 29.285156 14.078125 29.417969 14 29.5625 14 L 32.613281 14 C 32.878906 14 33.078125 14.355469 32.953125 14.601563 L 27.90625 24 L 32.953125 33.378906 C 33.097656 33.632813 32.886719 34 32.613281 34 Z "/>
</g>
</svg>
